# xmcd
#
# Track frame offsets:
#	200
#	19635
#	29645
#	52110
#	66482
#	87225
#	99480
#	120430
#	138570
#	150107
#	166085
#	204525
#
# Disc length: 2941 seconds
#
# Revision: 8
# Processed by: cddbd v1.5.2PL0 Copyright (c) Steve Scherf et al.
# Submitted via: EasyCDDAExtractor 11.0.2.1
#
DISCID=9a0b7b0c
DTITLE=The Seldom Scene - Scene 20... 20th Anniversary Concert - Disc 2
DYEAR=1992
DGENRE=Bluegrass
TTITLE0=Breakin' New Ground
TTITLE1=Old Train
TTITLE2=Wait A Minute
TTITLE3=Blue Ridge Cabin Home
TTITLE4=Gypsy Moon
TTITLE5=Walk Through This World With Me
TTITLE6=In The Pines
TTITLE7=And On Bass
TTITLE8=Another Lonesome Day
TTITLE9=Have Mercy On My Soul
TTITLE10=House Of The Rising Sun/Walk Don't Run
TTITLE11=In The Midnight Hour
EXTD=YEAR: 1992
EXTT0=
EXTT1=
EXTT2=
EXTT3=
EXTT4=
EXTT5=
EXTT6=
EXTT7=
EXTT8=
EXTT9=
EXTT10=
EXTT11=
PLAYORDER=
